<svg id="Layer_1" enable-background="new 0 0 66 66" viewBox="0 0 66 66" xmlns="http://www.w3.org/2000/svg"><g><g><path d="m1 1h64v64h-64z" fill="#ebf0f3"/><path d="m1 57h64v8h-64z" fill="#d5d6db"/></g><g fill="#2f4859"><path d="m15.5 33c0 6.9 4 12.9 9.9 15.7l-8.4-22.8c-1 2.2-1.5 4.6-1.5 7.1z"/><path d="m44.8 32.1c0-2.2-.8-3.7-1.4-4.8-.9-1.4-1.7-2.7-1.7-4.1 0-1.6 1.2-3.1 2.9-3.1h.2c-3.1-2.9-7.3-4.6-11.8-4.6-6.1 0-11.5 3.1-14.6 7.9h1.1c1.8 0 4.7-.2 4.7-.2.9-.1 1.1 1.3.1 1.4 0 0-.9.1-2 .2l6.4 19 3.8-11.5-2.7-7.5c-.9-.1-1.8-.2-1.8-.2-.9-.1-.8-1.5.1-1.4 0 0 2.9.2 4.6.2 1.8 0 4.7-.2 4.7-.2.9-.1 1.1 1.3.1 1.4 0 0-.9.1-2 .2l6.3 18.8 1.7-5.8c.7-2.4 1.3-4.2 1.3-5.7z"/><path d="m33.3 34.5-5.3 15.3c1.6.5 3.2.7 4.9.7 2 0 4-.4 5.8-1 0-.1-.1-.2-.1-.2z"/><path d="m48.4 24.6c.1.6.1 1.2.1 1.8 0 1.8-.3 3.8-1.3 6.3l-5.3 15.5c5.2-3 8.7-8.7 8.7-15.1-.1-3.1-.9-6-2.2-8.5z"/></g></g></svg>